<svg width="54" height="54" viewBox="0 0 54 54" fill="none" xmlns="http://www.w3.org/2000/svg">
<path d="M50.3182 20.6876C49.4199 19.7488 48.4906 18.7813 48.1403 17.9307C47.8162 17.1515 47.7972 15.86 47.7781 14.609C47.7424 12.2834 47.7043 9.64801 45.8719 7.81562C44.0395 5.98324 41.4041 5.94512 39.0785 5.90937C37.8275 5.89031 36.536 5.87125 35.7568 5.54719C34.9086 5.19691 33.9387 4.26762 32.9999 3.3693C31.3558 1.78949 29.4877 0 27 0C24.5123 0 22.6466 1.78949 21.0001 3.3693C20.0613 4.26762 19.0938 5.19691 18.2432 5.54719C17.4688 5.87125 16.1725 5.89031 14.9215 5.90937C12.5959 5.94512 9.96051 5.98324 8.12812 7.81562C6.29574 9.64801 6.26953 12.2834 6.22187 14.609C6.20281 15.86 6.18375 17.1515 5.85969 17.9307C5.50941 18.7789 4.58012 19.7488 3.6818 20.6876C2.10199 22.3317 0.3125 24.1998 0.3125 26.6875C0.3125 29.1752 2.10199 31.0409 3.6818 32.6874C4.58012 33.6262 5.50941 34.5937 5.85969 35.4443C6.18375 36.2235 6.20281 37.515 6.22187 38.766C6.25762 41.0916 6.29574 43.727 8.12812 45.5594C9.96051 47.3918 12.5959 47.4299 14.9215 47.4656C16.1725 47.4847 17.464 47.5037 18.2432 47.8278C19.0914 48.1781 20.0613 49.1074 21.0001 50.0057C22.6442 51.5855 24.5123 53.375 27 53.375C29.4877 53.375 31.3534 51.5855 32.9999 50.0057C33.9387 49.1074 34.9062 48.1781 35.7568 47.8278C36.536 47.5037 37.8275 47.4847 39.0785 47.4656C41.4041 47.4299 44.0395 47.3918 45.8719 45.5594C47.7043 43.727 47.7424 41.0916 47.7781 38.766C47.7972 37.515 47.8162 36.2235 48.1403 35.4443C48.4906 34.5961 49.4199 33.6262 50.3182 32.6874C51.898 31.0433 53.6875 29.1752 53.6875 26.6875C53.6875 24.1998 51.898 22.3341 50.3182 20.6876ZM37.8799 22.3174L24.5362 35.6612C24.3591 35.8384 24.1489 35.979 23.9175 36.0749C23.6861 36.1709 23.438 36.2202 23.1875 36.2202C22.937 36.2202 22.6889 36.1709 22.4575 36.0749C22.2261 35.979 22.0159 35.8384 21.8388 35.6612L16.1201 29.9424C15.7624 29.5847 15.5614 29.0996 15.5614 28.5938C15.5614 28.0879 15.7624 27.6028 16.1201 27.2451C16.4778 26.8874 16.9629 26.6864 17.4688 26.6864C17.9746 26.6864 18.4597 26.8874 18.8174 27.2451L23.1875 31.6175L35.1826 19.6201C35.3597 19.443 35.5699 19.3025 35.8014 19.2066C36.0328 19.1108 36.2808 19.0614 36.5312 19.0614C36.7817 19.0614 37.0297 19.1108 37.2611 19.2066C37.4926 19.3025 37.7028 19.443 37.8799 19.6201C38.057 19.7972 38.1975 20.0074 38.2934 20.2389C38.3892 20.4703 38.4386 20.7183 38.4386 20.9688C38.4386 21.2192 38.3892 21.4672 38.2934 21.6986C38.1975 21.9301 38.057 22.1403 37.8799 22.3174Z" fill="#05E168"/>
</svg>
