<svg width="26" height="26" viewBox="0 0 26 26" fill="none" xmlns="http://www.w3.org/2000/svg">
<g clip-path="url(#clip0_684_15727)">
<path d="M23.6588 6.22066C21.0895 4.73749 17.804 5.61882 16.3192 8.18817L12.5764 14.6718C11.4934 16.5441 12.8876 17.1983 14.4423 18.1304L18.0437 20.2091C19.2633 20.9126 20.8211 20.4949 21.5246 19.2769L25.3723 12.6138C26.6648 10.3748 25.8978 7.51329 23.6588 6.22066Z" fill="#EA4335"/>
<path d="M19.4236 8.90423L15.8222 6.8256C13.834 5.72196 12.7082 5.64891 11.8919 6.94629L6.58019 16.1454C5.097 18.7132 5.97992 21.9971 8.54766 23.4771C10.7867 24.7697 13.6482 24.0027 14.9408 21.7636L20.3542 12.3866C21.0609 11.1671 20.6432 9.60771 19.4236 8.90423Z" fill="#FBBC04"/>
<path d="M20.1167 4.17531L17.5871 2.71438C14.7891 1.09941 11.2114 2.05695 9.59648 4.85496L4.78015 13.1965C4.06874 14.4272 4.49114 16.0025 5.72184 16.7123L8.55478 18.3479C9.95374 19.1562 11.7418 18.6766 12.5501 17.2776L18.0524 7.74826C19.1926 5.77439 21.7158 5.09792 23.6897 6.23808L20.1167 4.17531Z" fill="#34A853"/>
<path d="M10.2807 7.24163L7.54626 5.66637C6.32668 4.96449 4.7689 5.38053 4.06543 6.59692L0.78469 12.266C-0.830279 15.056 0.127267 18.6258 2.92527 20.236L5.0071 21.4349L7.53196 22.8895L8.62767 23.5199C6.6824 22.2178 6.06468 19.6087 7.25405 17.5539L8.10362 16.0866L11.2145 10.7113C11.9163 9.49816 11.4987 7.94351 10.2807 7.24163Z" fill="#4285F4"/>
</g>
<defs>
<clipPath id="clip0_684_15727">
<rect width="26" height="26" fill="white"/>
</clipPath>
</defs>
</svg>
