<svg width="26" height="26" viewBox="0 0 26 26" fill="none" xmlns="http://www.w3.org/2000/svg">
<g clip-path="url(#clip0_684_12385)">
<path d="M13 5.6875C11.4294 5.6875 10.1562 4.41431 10.1562 2.84375C10.1562 1.27319 11.4294 0 13 0C14.5706 0 15.8438 1.27319 15.8438 2.84375C15.8438 4.41431 14.5706 5.6875 13 5.6875Z" fill="#12002C"/>
<path d="M3.80859 6.50152H22.1914C22.555 6.50152 22.9038 6.64598 23.1609 6.90311C23.418 7.16024 23.5625 7.50898 23.5625 7.87262C23.5625 8.23625 23.418 8.585 23.1609 8.84213C22.9038 9.09926 22.555 9.24371 22.1914 9.24371H17.0178C16.6669 9.24371 16.2561 9.40062 16.0235 10.0054C15.7518 10.7077 15.8849 12.0641 16.0525 13.1148L16.2718 14.3564C16.2714 14.3596 16.2718 14.3629 16.2728 14.366C16.2739 14.369 16.2756 14.3718 16.2779 14.3741L18.035 24.3684C18.0987 24.7312 18.0161 25.1044 17.8053 25.4065C17.5945 25.7086 17.2727 25.9148 16.9102 25.9802C16.7309 26.0119 16.5472 26.0077 16.3696 25.9678C16.1921 25.9279 16.0242 25.8531 15.8757 25.7478C15.7273 25.6425 15.6013 25.5088 15.5049 25.3543C15.4086 25.1999 15.3439 25.0279 15.3146 24.8483L14.1004 17.9014C14.1004 17.9014 13.7109 16.2515 13 16.2515C12.2774 16.2515 11.896 17.9014 11.896 17.9014L10.6818 24.8544C10.6525 25.0356 10.5873 25.2091 10.4902 25.3649C10.3931 25.5207 10.2659 25.6556 10.1161 25.7617C9.96636 25.8678 9.79695 25.9431 9.61779 25.9831C9.43862 26.0231 9.25329 26.027 9.07259 25.9947C8.89189 25.9623 8.71944 25.8943 8.56528 25.7947C8.41113 25.695 8.27835 25.5656 8.1747 25.4141C8.07105 25.2626 7.99859 25.092 7.96155 24.9122C7.9245 24.7324 7.92362 24.547 7.95895 24.3669L9.71648 14.3726C9.71611 14.3694 9.71642 14.3662 9.71738 14.3631C9.71835 14.3601 9.71994 14.3572 9.72207 14.3548L9.94195 13.1132C10.1095 12.0626 10.2426 10.7062 9.9709 10.0039C9.73934 9.40062 9.31531 9.24219 8.99184 9.24219H3.80859C3.44496 9.24219 3.09621 9.09773 2.83908 8.8406C2.58195 8.58347 2.4375 8.23473 2.4375 7.87109C2.4375 7.50746 2.58195 7.15871 2.83908 6.90158C3.09621 6.64445 3.44496 6.5 3.80859 6.5V6.50152Z" fill="#12002C"/>
</g>
<defs>
<clipPath id="clip0_684_12385">
<rect width="26" height="26" fill="white" transform="matrix(-1 0 0 1 26 0)"/>
</clipPath>
</defs>
</svg>
