<svg width="18" height="16" viewBox="0 0 18 16" fill="none" xmlns="http://www.w3.org/2000/svg">
<path d="M6.36189 5.15916C6.36189 5.15916 3.20189 5.50916 1.09389 5.74316C0.90389 5.76616 0.73589 5.89316 0.67289 6.08616C0.60989 6.27916 0.67289 6.48016 0.81289 6.60716C2.37889 8.03616 4.73189 10.1762 4.73189 10.1762C4.72989 10.1762 4.08589 13.2892 3.65789 15.3662C3.62189 15.5542 3.68989 15.7532 3.85389 15.8722C4.01689 15.9912 4.22689 15.9932 4.39189 15.9002C6.23589 14.8522 8.99789 13.2762 8.99789 13.2762C8.99789 13.2762 11.7609 14.8522 13.6019 15.9012C13.7699 15.9932 13.9799 15.9912 14.1429 15.8722C14.3069 15.7532 14.3749 15.5542 14.3379 15.3672C13.9099 13.2892 13.2669 10.1762 13.2669 10.1762C13.2669 10.1762 15.6199 8.03616 17.1859 6.61016C17.3259 6.47916 17.3879 6.27816 17.3259 6.08616C17.2639 5.89416 17.0959 5.76716 16.9059 5.74516C14.7979 5.50916 11.6369 5.15916 11.6369 5.15916C11.6369 5.15916 10.3269 2.26116 9.45389 0.329156C9.37189 0.156156 9.19989 0.0351562 8.99789 0.0351562C8.79589 0.0351562 8.62289 0.157156 8.54489 0.329156C7.67089 2.26116 6.36189 5.15916 6.36189 5.15916Z" fill="#12002C"/>
</svg>
