<svg width="24" height="24" viewBox="0 0 24 24" fill="none" xmlns="http://www.w3.org/2000/svg">
<g clip-path="url(#clip0_684_11273)">
<path d="M23.2103 5.73938L18.3578 3.09375C18.2478 3.03292 18.1244 3.00068 17.9987 3H14.9987C14.7998 3 14.609 3.07902 14.4684 3.21967C14.3277 3.36032 14.2487 3.55109 14.2487 3.75C14.2487 4.34674 14.0117 4.91903 13.5897 5.34099C13.1678 5.76295 12.5955 6 11.9987 6C11.402 6 10.8297 5.76295 10.4077 5.34099C9.98577 4.91903 9.74872 4.34674 9.74872 3.75C9.74872 3.55109 9.6697 3.36032 9.52905 3.21967C9.3884 3.07902 9.19763 3 8.99872 3H5.99872C5.87275 3.00052 5.74894 3.03276 5.63872 3.09375L0.787155 5.73938C0.441312 5.92214 0.18206 6.2346 0.0662458 6.60823C-0.0495686 6.98186 -0.0124932 7.38617 0.169342 7.7325L1.9759 11.1834C2.10726 11.4315 2.30416 11.6389 2.54516 11.7828C2.78617 11.9268 3.06205 12.0019 3.34278 12H5.24872V19.5C5.24872 19.8978 5.40675 20.2794 5.68806 20.5607C5.96936 20.842 6.35089 21 6.74872 21H17.2487C17.6465 21 18.0281 20.842 18.3094 20.5607C18.5907 20.2794 18.7487 19.8978 18.7487 19.5V12H20.6556C20.9363 12.0019 21.2122 11.9268 21.4532 11.7828C21.6942 11.6389 21.8911 11.4315 22.0225 11.1834L23.829 7.7325C24.0108 7.38605 24.0477 6.98165 23.9317 6.60801C23.8157 6.23437 23.5563 5.92198 23.2103 5.73938ZM3.34278 10.5C3.32892 10.5007 3.31529 10.4963 3.30434 10.4878L1.50715 7.05562L5.24872 5.01375V10.5H3.34278ZM20.6931 10.4869C20.6879 10.4916 20.6818 10.4951 20.6752 10.4974C20.6686 10.4996 20.6616 10.5005 20.6547 10.5H18.7487V5.01375L22.4912 7.05562L20.6931 10.4869Z" fill="#FF5D49"/>
</g>
<defs>
<clipPath id="clip0_684_11273">
<rect width="24" height="24" fill="white"/>
</clipPath>
</defs>
</svg>
