<svg width="18" height="18" viewBox="0 0 18 18" fill="none" xmlns="http://www.w3.org/2000/svg">
<path d="M9.00065 10.668C11.3018 10.668 13.1673 8.42939 13.1673 5.66797C13.1673 2.90654 11.3018 0.667969 9.00065 0.667969C6.69946 0.667969 4.83398 2.90654 4.83398 5.66797C4.83398 8.42939 6.69946 10.668 9.00065 10.668Z" fill="#12002C"/>
<path d="M17.1675 14.9169C16.4175 13.4169 15.0008 12.1669 13.1675 11.4169C12.6675 11.2503 12.0842 11.2503 11.6675 11.5003C10.8342 12.0003 10.0008 12.2503 9.00083 12.2503C8.00083 12.2503 7.1675 12.0003 6.33416 11.5003C5.9175 11.3336 5.33416 11.2503 4.83416 11.5003C3.00083 12.2503 1.58416 13.5003 0.834165 15.0003C0.250832 16.0836 1.1675 17.3336 2.4175 17.3336H15.5842C16.8342 17.3336 17.7508 16.0836 17.1675 14.9169Z" fill="#12002C"/>
</svg>
