<svg width="32" height="32" viewBox="0 0 32 32" fill="none" xmlns="http://www.w3.org/2000/svg">
<rect width="32" height="32" rx="16" fill="#D7F0FF" fill-opacity="0.7"/>
<g opacity="0.9">
<path d="M9.125 24.75C8.95924 24.75 8.80027 24.6842 8.68306 24.5669C8.56585 24.4497 8.5 24.2908 8.5 24.125C8.5 23.9592 8.56585 23.8003 8.68306 23.6831C8.80027 23.5658 8.95924 23.5 9.125 23.5H10.375V22.25C10.3747 21.1887 10.6747 20.149 11.2403 19.251C11.8059 18.3529 12.614 17.6332 13.5712 17.175C13.9338 17.0012 14.125 16.7038 14.125 16.4375V15.5625C14.125 15.2963 13.9325 14.9987 13.5712 14.825C12.614 14.3668 11.8059 13.6471 11.2403 12.749C10.6747 11.851 10.3747 10.8113 10.375 9.75V8.5H9.125C8.95924 8.5 8.80027 8.43415 8.68306 8.31694C8.56585 8.19973 8.5 8.04076 8.5 7.875C8.5 7.70924 8.56585 7.55027 8.68306 7.43306C8.80027 7.31585 8.95924 7.25 9.125 7.25H22.875C23.0408 7.25 23.1997 7.31585 23.3169 7.43306C23.4342 7.55027 23.5 7.70924 23.5 7.875C23.5 8.04076 23.4342 8.19973 23.3169 8.31694C23.1997 8.43415 23.0408 8.5 22.875 8.5H21.625V9.75C21.6253 10.8113 21.3253 11.851 20.7597 12.749C20.1941 13.6471 19.386 14.3668 18.4288 14.825C18.0662 14.9987 17.875 15.2963 17.875 15.5625V16.4375C17.875 16.7038 18.0675 17.0012 18.4288 17.175C19.386 17.6332 20.1941 18.3529 20.7597 19.251C21.3253 20.149 21.6253 21.1887 21.625 22.25V23.5H22.875C23.0408 23.5 23.1997 23.5658 23.3169 23.6831C23.4342 23.8003 23.5 23.9592 23.5 24.125C23.5 24.2908 23.4342 24.4497 23.3169 24.5669C23.1997 24.6842 23.0408 24.75 22.875 24.75H9.125ZM11.625 8.5V9.75C11.625 10.4213 11.775 11.0563 12.0462 11.625H19.9538C20.2238 11.0563 20.375 10.4213 20.375 9.75V8.5H11.625ZM15.375 16.4375C15.375 17.3138 14.7775 17.9825 14.1112 18.3025C13.3666 18.6589 12.738 19.2187 12.2981 19.9172C11.8581 20.6157 11.6248 21.4245 11.625 22.25C11.625 22.25 12.7075 20.6263 15.375 20.4V16.4375ZM16.625 16.4375V20.4C19.2925 20.6263 20.375 22.25 20.375 22.25C20.3752 21.4245 20.1419 20.6157 19.7019 19.9172C19.262 19.2187 18.6334 18.6589 17.8888 18.3025C17.2225 17.9825 16.625 17.3138 16.625 16.4375Z" fill="#033E61"/>
</g>
</svg>
