<?xml version="1.0" encoding="UTF-8"?>
<svg version="1.1" xmlns="http://www.w3.org/2000/svg" width="73" height="74">
<path d="M0 0 C5.57808242 3.24814264 9.63080321 7.92098131 12.1875 13.8125 C12.93801136 18.73251891 12.911631 23.53433643 12.75 28.5 C13.5234375 28.45359375 14.296875 28.4071875 15.09375 28.359375 C21.90560451 28.12332064 27.21118321 28.25934339 32.75 32.5 C36.91663447 36.50852558 40.41659111 40.5691032 41.0859375 46.453125 C41.16721875 53.31326214 41.10119699 58.95064732 36.75 64.5 C29.96310561 71.39270344 29.96310561 71.39270344 25.2696228 71.62025452 C24.22593536 71.61803391 23.18224792 71.61581329 22.10693359 71.61352539 C20.92586029 71.61344986 19.74478699 71.61337433 18.52792358 71.61329651 C17.24769318 71.60813522 15.96746277 71.60297394 14.6484375 71.59765625 C13.34170074 71.5962413 12.03496399 71.59482635 10.68862915 71.59336853 C7.21323742 71.58954894 3.73788743 71.57972342 0.26251221 71.56866455 C-3.28331945 71.55843843 -6.82915785 71.55386833 -10.375 71.54882812 C-17.33335049 71.53810066 -24.29167324 71.52103092 -31.25 71.5 C-31.34303702 64.20640378 -31.41393443 56.91293733 -31.45724869 49.61886597 C-31.47804671 46.23121042 -31.50621887 42.84396344 -31.55175781 39.45654297 C-31.60044693 35.55425354 -31.62300929 31.65253848 -31.640625 27.75 C-31.66127014 26.54448486 -31.68191528 25.33896973 -31.70318604 24.09692383 C-31.70528728 16.16428975 -30.83730693 10.65710289 -25.50390625 4.4765625 C-24.94574219 4.03054687 -24.38757813 3.58453125 -23.8125 3.125 C-23.25691406 2.66351562 -22.70132812 2.20203125 -22.12890625 1.7265625 C-15.56697673 -2.55710874 -7.19771859 -3.17092476 0 0 Z " fill="#FE630B" transform="translate(32.25,2.5)"/>
<path d="M0 0 C0.66 0 1.32 0 2 0 C7 5.47619048 7 5.47619048 7 8 C7.73605469 8.18175781 8.47210938 8.36351562 9.23046875 8.55078125 C18.87503357 11.03518038 18.87503357 11.03518038 23 14 C29.62913821 18.41942547 34.55004557 18.34772905 42.4375 18.3125 C43.60933838 18.31121094 44.78117676 18.30992188 45.98852539 18.30859375 C53.2560033 18.22774855 59.79031675 17.73217549 66.77734375 15.65625 C69 15 69 15 72 15 C72.45312515 21.34375211 71.73421662 25.75044911 68 31 C61.29036436 37.88895775 61.29036436 37.88895775 56.5196228 38.12025452 C55.47593536 38.11803391 54.43224792 38.11581329 53.35693359 38.11352539 C52.17586029 38.11344986 50.99478699 38.11337433 49.77792358 38.11329651 C48.49769318 38.10813522 47.21746277 38.10297394 45.8984375 38.09765625 C44.59170074 38.0962413 43.28496399 38.09482635 41.93862915 38.09336853 C38.46323742 38.08954894 34.98788743 38.07972342 31.51251221 38.06866455 C27.96668065 38.05843843 24.42084216 38.05381358 20.875 38.04882812 C13.91662979 38.03863122 6.95837423 38.01905824 0 38 C0 25.46 0 12.92 0 0 Z " fill="#6971FD" transform="translate(1,36)"/>
<path d="M0 0 C0.33 0.66 0.66 1.32 1 2 C0.67 2.66 0.34 3.32 0 4 C0.66 4 1.32 4 2 4 C3.15570704 7.46712111 3.32835293 10.5414956 3.5625 14.1875 C3.64628906 15.45980469 3.73007813 16.73210938 3.81640625 18.04296875 C3.87699219 19.01878906 3.93757812 19.99460937 4 21 C4.99 21 5.98 21 7 21 C7.61875 21.886875 8.2375 22.77375 8.875 23.6875 C12.72858666 28.67937687 19.14405857 30.30977936 25 32 C26.32 32 27.64 32 29 32 C29.99 32.33 30.98 32.66 32 33 C33.68693289 33.04374542 35.37546831 33.03975332 37.0625 33 C41.77840112 32.88920056 41.77840112 32.88920056 44 34 C44 33.34 44 32.68 44 32 C44.58265625 31.88785156 45.1653125 31.77570312 45.765625 31.66015625 C48.20310657 30.93999124 49.7250586 29.95620605 51.75 28.4375 C52.67039062 27.75494141 52.67039062 27.75494141 53.609375 27.05859375 C54.06828125 26.70925781 54.5271875 26.35992187 55 26 C63.98825047 33.21622009 63.98825047 33.21622009 66 39 C66.03886212 40.66621353 66.0448771 42.33393763 66 44 C56.06463772 47.36181443 46.84806428 48.38670993 36.375 48.375 C34.68624756 48.37693359 34.68624756 48.37693359 32.96337891 48.37890625 C22.66055628 48.2427933 22.66055628 48.2427933 18 46 C17.67 45.34 17.34 44.68 17 44 C15.39413226 42.97538055 15.39413226 42.97538055 13.4375 42.0625 C12.71820312 41.71058594 11.99890625 41.35867187 11.2578125 40.99609375 C9.13247417 40.05844449 7.0219492 39.33488007 4.8125 38.625 C0.47284908 37.07573606 -1.42787651 34.77780637 -4 31 C-4 30.34 -4 29.68 -4 29 C-4.66 29 -5.32 29 -6 29 C-6.10890711 25.99900412 -6.18773555 23.00203622 -6.25 20 C-6.28351562 19.16082031 -6.31703125 18.32164063 -6.3515625 17.45703125 C-6.44510534 11.4235183 -5.36615081 7.05387132 -2 2 C-1.34 1.34 -0.68 0.68 0 0 Z " fill="#FE4C48" transform="translate(7,7)"/>
<path d="M0 0 C0.66 0 1.32 0 2 0 C7 5.47619048 7 5.47619048 7 8 C7.73605469 8.18175781 8.47210938 8.36351562 9.23046875 8.55078125 C18.87503357 11.03518038 18.87503357 11.03518038 23 14 C29.62913821 18.41942547 34.55004557 18.34772905 42.4375 18.3125 C43.60933838 18.31121094 44.78117676 18.30992188 45.98852539 18.30859375 C53.2560033 18.22774855 59.79031675 17.73217549 66.77734375 15.65625 C69 15 69 15 72 15 C72 17.31 72 19.62 72 22 C54.80545132 28.73398674 37.12527066 30.24769807 19 26 C18.00097656 25.78214844 17.00195312 25.56429687 15.97265625 25.33984375 C10.57118843 24.04093625 7.92699039 22.9744943 4 19 C2.68 18.67 1.36 18.34 0 18 C0 12.06 0 6.12 0 0 Z " fill="#BA61DE" transform="translate(1,36)"/>
<path d="M0 0 C0.66 0 1.32 0 2 0 C3.24549452 1.43067595 4.42106422 2.92250342 5.5625 4.4375 C7.03810606 6.29450157 8.51734812 8.14861904 10 10 C10.64839844 10.82242188 11.29679688 11.64484375 11.96484375 12.4921875 C19.14144846 20.67434334 28.36024 23.24348614 38.83984375 24.4375 C46.93619649 24.70936074 53.98595836 23.29741327 61.66015625 20.97265625 C64.77346984 20.06597194 67.79432857 19.46352935 71 19 C71.495 22.465 71.495 22.465 72 26 C62.06463772 29.36181443 52.84806428 30.38670993 42.375 30.375 C40.68624756 30.37693359 40.68624756 30.37693359 38.96337891 30.37890625 C28.66055628 30.2427933 28.66055628 30.2427933 24 28 C23.67 27.34 23.34 26.68 23 26 C21.39413226 24.97538055 21.39413226 24.97538055 19.4375 24.0625 C18.71820312 23.71058594 17.99890625 23.35867187 17.2578125 22.99609375 C15.13247417 22.05844449 13.0219492 21.33488007 10.8125 20.625 C6.47284908 19.07573606 4.57212349 16.77780637 2 13 C2 12.34 2 11.68 2 11 C1.34 11 0.68 11 0 11 C0 7.37 0 3.74 0 0 Z " fill="#F358B5" transform="translate(1,25)"/>
<path d="M0 0 C2 3 2 3 2 5 C2.66 5 3.32 5 4 5 C5.02297922 5.97648017 6.01904252 6.98131338 7 8 C12.18095534 12.62978988 19.43092162 13.38352522 26 15 C26.78761719 15.23074219 27.57523438 15.46148437 28.38671875 15.69921875 C40.09296517 18.94201 53.2772932 17.17209985 65 15 C66.43625527 14.78325169 67.87356463 14.57317673 69.3125 14.375 C70.199375 14.25125 71.08625 14.1275 72 14 C72 14.66 72 15.32 72 16 C54.80545132 22.73398674 37.12527066 24.24769807 19 20 C18.00097656 19.78214844 17.00195312 19.56429687 15.97265625 19.33984375 C10.57118843 18.04093625 7.92699039 16.9744943 4 13 C2.68 12.67 1.36 12.34 0 12 C0 8.04 0 4.08 0 0 Z " fill="#A46AF1" transform="translate(1,42)"/>
<path d="M0 0 C0.66 0 1.32 0 2 0 C2.4125 1.051875 2.825 2.10375 3.25 3.1875 C4.69220829 6.59635596 6.63565426 9.14647928 9 12 C9 12.66 9 13.32 9 14 C9.66 14 10.32 14 11 14 C15.76744186 18.30232558 15.76744186 18.30232558 17 22 C19.3228102 22.96346321 19.3228102 22.96346321 22.125 23.5625 C23.05570313 23.79066406 23.98640625 24.01882812 24.9453125 24.25390625 C25.95335938 24.50011719 26.96140625 24.74632813 28 25 C29.59521484 25.52787109 29.59521484 25.52787109 31.22265625 26.06640625 C35.98101467 27.24246381 40.42855494 27.38197333 45.3125 27.375 C46.24368652 27.37628906 47.17487305 27.37757812 48.13427734 27.37890625 C54.06221965 27.28740319 58.93234784 26.68403631 64.2578125 23.875 C66 23 66 23 69 23 C69.495 24.98 69.495 24.98 70 27 C55.91049456 33.88092126 39.86189532 35.31672693 24.86694336 30.69335938 C16.82015311 27.70712591 11.3912418 21.44339035 6 15 C5.22140625 14.0821875 4.4428125 13.164375 3.640625 12.21875 C2 10 2 10 2 8 C1.34 8 0.68 8 0 8 C0 5.36 0 2.72 0 0 Z " fill="#FD4C66" transform="translate(1,17)"/>
<path d="M0 0 C4.672226 0.63138189 4.672226 0.63138189 6.25390625 2.41015625 C8.77510839 4.70574746 11.35695973 5.22077099 14.625 6.125 C16.37683594 6.62386719 16.37683594 6.62386719 18.1640625 7.1328125 C34.2303291 10.76490128 51.7122766 10.43310118 67.2265625 4.8359375 C70 4 70 4 72 5 C70.85629945 8.43110164 70.13496691 8.91496564 67.1875 10.8125 C66.50042969 11.27269531 65.81335938 11.73289062 65.10546875 12.20703125 C64.41066406 12.46871094 63.71585938 12.73039062 63 13 C61.65799103 12.35097447 60.32429802 11.68443917 59 11 C57.11926761 11.6475727 57.11926761 11.6475727 55.25 12.875 C47.46643147 16.68946405 37.14161601 15.96912597 28.875 13.9375 C25.05185054 13.01254449 22.76768465 13.03392701 19 14 C19 13.34 19 12.68 19 12 C18.278125 11.731875 17.55625 11.46375 16.8125 11.1875 C14.01877538 10.00792738 11.59633766 8.5578026 9 7 C7.34183216 6.31246699 5.67540664 5.64438717 4 5 C2.65949948 4.34786461 1.32338632 3.68620031 0 3 C0 2.01 0 1.02 0 0 Z " fill="#906DF8" transform="translate(1,54)"/>
<path d="M0 0 C0.66 0 1.32 0 2 0 C3.24549452 1.43067595 4.42106422 2.92250342 5.5625 4.4375 C7.03810606 6.29450157 8.51734812 8.14861904 10 10 C10.64839844 10.82242188 11.29679688 11.64484375 11.96484375 12.4921875 C19.14144846 20.67434334 28.36024 23.24348614 38.83984375 24.4375 C46.93619649 24.70936074 53.98595836 23.29741327 61.66015625 20.97265625 C64.77346984 20.06597194 67.79432857 19.46352935 71 19 C71 19.99 71 20.98 71 22 C55.89844776 26.77115332 35.44760467 30.3846052 20.48461914 23.79174805 C17.82935283 22.388437 15.41210233 20.78567575 13 19 C12.26007812 18.46375 11.52015625 17.9275 10.7578125 17.375 C7.35493847 14.66399663 4.48688433 11.58111343 2 8 C2 7.34 2 6.68 2 6 C1.34 6 0.68 6 0 6 C0 4.02 0 2.04 0 0 Z " fill="#F95194" transform="translate(1,25)"/>
<path d="M0 0 C0.66 0 1.32 0 2 0 C7 5.47619048 7 5.47619048 7 8 C7.73605469 8.18175781 8.47210938 8.36351562 9.23046875 8.55078125 C18.87503357 11.03518038 18.87503357 11.03518038 23 14 C23.99 14.66 24.98 15.32 26 16 C27.33790641 16.99387334 28.67218122 17.9926892 30 19 C23.76318374 18.46258726 17.67647146 17.83823573 12 15 C12 15.66 12 16.32 12 17 C12.66 17.33 13.32 17.66 14 18 C10.00118212 17.38479725 7.19641774 15.39731331 4 13 C4 12.34 4 11.68 4 11 C3.34 11 2.68 11 2 11 C0.19769832 7.17010894 -0.19622241 4.21878192 0 0 Z " fill="#E261DA" transform="translate(1,36)"/>
<path d="M0 0 C2.93440199 1.34736338 5.25073427 2.88566965 7.6875 5 C8.28949219 5.515625 8.89148438 6.03125 9.51171875 6.5625 C11 8 11 8 12 10 C18.86711561 13.55338736 26.2656848 13.48568048 33.8125 13.4375 C35.46088867 13.4674707 35.46088867 13.4674707 37.14257812 13.49804688 C44.20163102 13.49388715 49.94875618 12.38377009 56.5456543 9.85961914 C59 9 59 9 62 9 C62 9.66 62 10.32 62 11 C47.78364297 17.94287204 31.82668571 19.25009811 16.73510742 14.56152344 C9.52856327 11.92082125 4.71238268 6.95038152 0 1 C0 0.67 0 0.34 0 0 Z " fill="#F94C77" transform="translate(9,33)"/>
<path d="M0 0 C1.32 0.66 2.64 1.32 4 2 C1.80873464 3.78547548 -0.04340363 5.01715957 -2.6875 6.0625 C-5.15938605 6.76803846 -5.15938605 6.76803846 -6 9 C-13.61836797 12.78917076 -22.14107512 11.37250562 -30 9 C-30 8.34 -30 7.68 -30 7 C-31.299375 7.0928125 -31.299375 7.0928125 -32.625 7.1875 C-36.44199033 6.97544498 -38.71077536 5.87955693 -42 4 C-42 3.34 -42 2.68 -42 2 C-36.65329315 2.9901309 -32.68777779 4.18733332 -28 7 C-25.84725052 6.69159401 -25.84725052 6.69159401 -24 6 C-23.34 6.33 -22.68 6.66 -22 7 C-20.33394172 7.0450286 -18.66621616 7.03874921 -17 7 C-12.22222222 6.88888889 -12.22222222 6.88888889 -10 8 C-10 7.34 -10 6.68 -10 6 C-9.46375 5.938125 -8.9275 5.87625 -8.375 5.8125 C-4.88843038 4.61972618 -2.75059607 2.43802834 0 0 Z " fill="#FE482A" transform="translate(61,33)"/>
<path d="M0 0 C2 3 2 3 2 5 C2.66 5 3.32 5 4 5 C5.02297922 5.97648017 6.01904252 6.98131338 7 8 C10.41652021 11.05306061 13.78028358 11.95283389 18.1875 13.0625 C19.19441895 13.31737183 19.19441895 13.31737183 20.22167969 13.57739258 C22.14552831 14.06067486 24.07269109 14.5307073 26 15 C26.85722656 15.21914063 27.71445312 15.43828125 28.59765625 15.6640625 C34.34375296 17.06147985 40.10910851 17.58158154 46 18 C46 18.33 46 18.66 46 19 C33.68797266 19.51840115 18.68746049 20.12497366 8 13 C8 12.34 8 11.68 8 11 C7.05125 10.87625 6.1025 10.7525 5.125 10.625 C2 10 2 10 0 8 C-0.26991906 5.31160615 -0.08737357 2.70858064 0 0 Z " fill="#BE68ED" transform="translate(1,42)"/>
<path d="M0 0 C-12.50071312 5.86625644 -25.9498071 8.89025155 -39.5859375 4.96875 C-40.38257813 4.6490625 -41.17921875 4.329375 -42 4 C-42 3.67 -42 3.34 -42 3 C-41.28046143 2.98541748 -40.56092285 2.97083496 -39.81958008 2.95581055 C-22.3176103 2.79936382 -22.3176103 2.79936382 -5.22265625 -0.4765625 C-3 -1 -3 -1 0 0 Z " fill="#CF5CCC" transform="translate(73,52)"/>
<path d="M0 0 C0.495 0.99 0.495 0.99 1 2 C-3.26616316 3.13764351 -6.56486311 4 -11 4 C-11.33 4.99 -11.66 5.98 -12 7 C-16.23685007 8.60108821 -20.91097101 8.18409754 -25.375 8.1875 C-26.21289062 8.19974609 -27.05078125 8.21199219 -27.9140625 8.22460938 C-32.68461817 8.23586069 -36.51731565 7.84709958 -41 6 C-41 5.67 -41 5.34 -41 5 C-40.04299194 4.98598145 -40.04299194 4.98598145 -39.06665039 4.97167969 C-25.54719084 4.72403941 -13.00640119 3.79942426 0 0 Z " fill="#EB51A0" transform="translate(72,46)"/>
<path d="M0 0 C1.66675781 0.32484375 1.66675781 0.32484375 3.3671875 0.65625 C17.58118428 3.3546847 28.87816209 2.94350964 43 0 C43 0.66 43 1.32 43 2 C34.60948821 7.22076289 24.69162803 7.17705922 15.1796875 5.50390625 C14.41914063 5.31699219 13.65859375 5.13007812 12.875 4.9375 C9.05185054 4.01254449 6.76768465 4.03392701 3 5 C3 4.34 3 3.68 3 3 C2.01 2.67 1.02 2.34 0 2 C0 1.34 0 0.68 0 0 Z " fill="#7F6FFB" transform="translate(17,63)"/>
<path d="M0 0 C0 0.66 0 1.32 0 2 C-1.58199631 2.64910154 -3.16565724 3.29414694 -4.75 3.9375 C-5.63171875 4.29714844 -6.5134375 4.65679687 -7.421875 5.02734375 C-17.246373 8.7338589 -31.60212229 8.9654212 -41.3125 5 C-42.56188326 4.37203773 -43.80294909 3.72274772 -45 3 C-41.59790142 1.63916057 -39.44958102 2.42290697 -36.06103516 3.49316406 C-31.99763632 4.49240784 -27.85123284 4.380945 -23.6875 4.375 C-22.75631348 4.37628906 -21.82512695 4.37757812 -20.86572266 4.37890625 C-14.93778035 4.28740319 -10.06765216 3.68403631 -4.7421875 0.875 C-3 0 -3 0 0 0 Z " fill="#FC4A57" transform="translate(70,40)"/>
<path d="M0 0 C0 0.99 0 1.98 0 3 C-9.93536228 6.36181443 -19.15193572 7.38670993 -29.625 7.375 C-31.31375244 7.37693359 -31.31375244 7.37693359 -33.03662109 7.37890625 C-38.37672782 7.30835687 -43.02551808 7.18179032 -48 5 C-48 4.67 -48 4.34 -48 4 C-47.35417969 4.0721875 -46.70835938 4.144375 -46.04296875 4.21875 C-39.35395685 4.87758564 -32.71624899 5.10960312 -26 5.125 C-24.76286255 5.13176758 -24.76286255 5.13176758 -23.50073242 5.13867188 C-22.32474487 5.13577148 -22.32474487 5.13577148 -21.125 5.1328125 C-20.42632812 5.13168457 -19.72765625 5.13055664 -19.0078125 5.12939453 C-16.86795426 4.99149024 -15.03069192 4.69392963 -13 4 C-12.67 3.34 -12.34 2.68 -12 2 C-9.78515625 1.3671875 -9.78515625 1.3671875 -7.0625 0.875 C-6.16660156 0.70742188 -5.27070312 0.53984375 -4.34765625 0.3671875 C-2 0 -2 0 0 0 Z " fill="#DD56BB" transform="translate(73,48)"/>
<path d="M0 0 C1.6875 0.875 1.6875 0.875 3.6875 3.875 C1.97836802 4.61227262 0.26856926 5.348056 -1.4453125 6.07421875 C-2.93277237 6.7121461 -4.40653294 7.38199087 -5.875 8.0625 C-8.78616527 9.03288842 -11.26422383 9.01678029 -14.3125 8.875 C-14.6425 8.215 -14.9725 7.555 -15.3125 6.875 C-13.6625 6.545 -12.0125 6.215 -10.3125 5.875 C-9.9825 4.885 -9.6525 3.895 -9.3125 2.875 C-3.51127408 -0.1897986 -3.51127408 -0.1897986 0 0 Z " fill="#FD3738" transform="translate(65.3125,36.125)"/>
<path d="M0 0 C0.33 0.66 0.66 1.32 1 2 C0.67 2.66 0.34 3.32 0 4 C0.66 4 1.32 4 2 4 C3.15570704 7.46712111 3.32835293 10.5414956 3.5625 14.1875 C3.64628906 15.45980469 3.73007813 16.73210938 3.81640625 18.04296875 C3.87699219 19.01878906 3.93757812 19.99460937 4 21 C0.42620441 18.75993018 -0.64280814 17.05799381 -1.6875 13 C-1.91824219 12.13375 -2.14898437 11.2675 -2.38671875 10.375 C-2.58910156 9.59125 -2.79148437 8.8075 -3 8 C-3.33 7.01 -3.66 6.02 -4 5 C-2.0625 2.3125 -2.0625 2.3125 0 0 Z " fill="#FF4140" transform="translate(7,7)"/>
<path d="M0 0 C2.8759151 0.62100473 5.75068627 1.24666165 8.625 1.875 C9.43324219 2.04902344 10.24148437 2.22304688 11.07421875 2.40234375 C14.5415073 3.16345587 17.88153983 3.9601336 21.25 5.09375 C24.01913688 6.00630647 26.47603768 6.389949 29.375 6.625 C30.24898437 6.69976562 31.12296875 6.77453125 32.0234375 6.8515625 C33.00183594 6.92503906 33.00183594 6.92503906 34 7 C34 7.33 34 7.66 34 8 C31.27056463 8.05416741 28.54221436 8.09375225 25.8125 8.125 C25.04357422 8.14175781 24.27464844 8.15851562 23.48242188 8.17578125 C19.12897795 8.21314987 16.00148449 7.88551625 12 6 C9.70414122 5.45082448 7.40423912 5.00558836 5.0859375 4.5625 C3 4 3 4 0 2 C0 1.34 0 0.68 0 0 Z " fill="#CC63DD" transform="translate(13,51)"/>
<path d="M0 0 C4.57292535 0.78807784 8.24452353 1.51116229 12.1875 4.0625 C16.69450711 6.9636851 21.88264862 6.5841567 27.0859375 6.7265625 C28.04757813 6.81679688 29.00921875 6.90703125 30 7 C30.33 7.66 30.66 8.32 31 9 C24.2718373 9.22262303 18.46008837 8.95021536 12 7 C12 6.34 12 5.68 12 5 C10.700625 5.0928125 10.700625 5.0928125 9.375 5.1875 C5.55800967 4.97544498 3.28922464 3.87955693 0 2 C0 1.34 0 0.68 0 0 Z " fill="#FE4D34" transform="translate(19,35)"/>
<path d="M0 0 C4.15502071 0.30777931 6.67048186 1.36142212 10.375 3.25 C10.705 3.91 11.035 4.57 11.375 5.25 C12.365 5.91 13.355 6.57 14.375 7.25 C8.8378374 6.77287488 3.61158019 6.1736417 -1.625 4.25 C-2.285 3.26 -2.945 2.27 -3.625 1.25 C-2.625 0.25 -2.625 0.25 0 0 Z " fill="#E15ECB" transform="translate(16.625,47.75)"/>
<path d="M0 0 C0 0.99 0 1.98 0 3 C-2.68533564 3.67662 -5.372725 4.34146121 -8.0625 5 C-9.19075195 5.28617188 -9.19075195 5.28617188 -10.34179688 5.578125 C-15.02773336 6.7141096 -19.17932546 7.20486266 -24 7 C-20.62137195 4.7475813 -17.37670903 3.90852331 -13.5 2.9375 C-2.03392193 0 -2.03392193 0 0 0 Z " fill="#EE4792" transform="translate(72,44)"/>
<path d="M0 0 C4.95 0.99 4.95 0.99 10 2 C10 2.66 10 3.32 10 4 C16.6 4.66 23.2 5.32 30 6 C30 6.33 30 6.66 30 7 C11.41607898 7.6854725 11.41607898 7.6854725 3 4 C2.01 2.68 1.02 1.36 0 0 Z " fill="#FD4C44" transform="translate(21,38)"/>
<path d="M0 0 C0.495 0.99 0.495 0.99 1 2 C-3.26616316 3.13764351 -6.56486311 4 -11 4 C-11.33 4.99 -11.66 5.98 -12 7 C-14.82832791 8.08372641 -17.54333024 8.11795047 -20.546875 8.09765625 C-21.39121094 8.09443359 -22.23554687 8.09121094 -23.10546875 8.08789062 C-23.97816406 8.07951172 -24.85085937 8.07113281 -25.75 8.0625 C-27.08224609 8.05573242 -27.08224609 8.05573242 -28.44140625 8.04882812 C-30.62767329 8.037074 -32.81380179 8.02064249 -35 8 C-35 7.67 -35 7.34 -35 7 C-33.75863281 6.96261719 -32.51726563 6.92523438 -31.23828125 6.88671875 C-29.59632489 6.8210405 -27.95439913 6.7545938 -26.3125 6.6875 C-25.08756836 6.65366211 -25.08756836 6.65366211 -23.83789062 6.61914062 C-18.96623857 6.40218446 -16.11539826 5.7806745 -12 3 C-9.9166285 2.36479388 -7.80977762 1.80225637 -5.6875 1.3125 C-4.61886719 1.06113281 -3.55023438 0.80976562 -2.44921875 0.55078125 C-1.23685547 0.27814453 -1.23685547 0.27814453 0 0 Z " fill="#E450AC" transform="translate(72,46)"/>
<path d="M0 0 C2.99987171 3.28557377 4.02529928 6.79791054 5.25390625 10.9765625 C5.90892716 13.18813683 5.90892716 13.18813683 8 15 C7.67 15.99 7.34 16.98 7 18 C-1 7.61879896 -1 7.61879896 -1 1 C-0.67 0.67 -0.34 0.34 0 0 Z " fill="#FF4359" transform="translate(3,13)"/>
<path d="M0 0 C0.99 0 1.98 0 3 0 C3 0.66 3 1.32 3 2 C-3.05022986 4.66557258 -8.38914524 6.51030705 -15 7 C-15 6.34 -15 5.68 -15 5 C-14.00097656 4.72285156 -13.00195312 4.44570313 -11.97265625 4.16015625 C-10.66922209 3.79444451 -9.36583931 3.42854962 -8.0625 3.0625 C-7.40314453 2.88009766 -6.74378906 2.69769531 -6.06445312 2.50976562 C-2.76178827 1.77403899 -2.76178827 1.77403899 0 0 Z " fill="#F93B62" transform="translate(67,40)"/>
<path d="M0 0 C0.66 0 1.32 0 2 0 C2.18175781 0.68707031 2.36351562 1.37414062 2.55078125 2.08203125 C2.80214844 2.98308594 3.05351563 3.88414063 3.3125 4.8125 C3.55613281 5.70582031 3.79976563 6.59914063 4.05078125 7.51953125 C5.0200819 10.05247738 5.95009604 11.2716496 8 13 C7.67 13.99 7.34 14.98 7 16 C2 10.25 2 10.25 2 8 C1.34 8 0.68 8 0 8 C0 5.36 0 2.72 0 0 Z " fill="#FE487A" transform="translate(1,17)"/>
<path d="M0 0 C0 0.66 0 1.32 0 2 C-5.37180176 4.62875405 -10.04492601 5.6083965 -16 6 C-15 4 -15 4 -12.3828125 2.9296875 C-11.30773438 2.58164062 -10.23265625 2.23359375 -9.125 1.875 C-8.05507813 1.52179687 -6.98515625 1.16859375 -5.8828125 0.8046875 C-3 0 -3 0 0 0 Z " fill="#F63F79" transform="translate(71,42)"/>
<path d="M0 0 C-3.31925459 3.76182186 -7.22909362 4.83161477 -12 6 C-15.5625 6.1875 -15.5625 6.1875 -18 6 C-15.52120041 4.34746694 -13.68269067 3.41755872 -10.9375 2.4375 C-3.87193495 -0.10189303 -3.87193495 -0.10189303 0 0 Z " fill="#FC384E" transform="translate(69,39)"/>
<path d="M0 0 C1.32 0.66 2.64 1.32 4 2 C0.58983503 4.86453858 -2.90694544 6.34703566 -7 8 C-5.50902342 4.2047869 -3.24299151 2.38957269 0 0 Z " fill="#FE3A21" transform="translate(61,33)"/>
<path d="M0 0 C0.33 0.66 0.66 1.32 1 2 C0.67 2.66 0.34 3.32 0 4 C0.66 4 1.32 4 2 4 C3.1577506 7.47325181 3.06866652 10.36067448 3 14 C0.85159327 12.25586336 0.06622501 11.29612041 -0.546875 8.5546875 C-0.61390625 7.67039062 -0.6809375 6.78609375 -0.75 5.875 C-0.82734375 4.98554688 -0.9046875 4.09609375 -0.984375 3.1796875 C-0.99210938 2.10074219 -0.99210938 2.10074219 -1 1 C-0.67 0.67 -0.34 0.34 0 0 Z " fill="#FF3F2C" transform="translate(7,7)"/>
<path d="M0 0 C0 0.99 0 1.98 0 3 C-2.5 4.6875 -2.5 4.6875 -5 6 C-5.66 5.01 -6.32 4.02 -7 3 C-4.38058783 1.25372522 -2.96175123 0.61277612 0 0 Z " fill="#806FF9" transform="translate(69,61)"/>
</svg>
