<svg width="45" height="45" viewBox="0 0 45 45" fill="none" xmlns="http://www.w3.org/2000/svg">
<path d="M22.9947 28.9166C20.0094 32.7037 14.3705 32.353 11.7169 28.8699C9.67937 26.2049 9.51349 23.2362 10.9114 20.2907C12.2619 17.4388 14.7733 16.1063 17.9481 16.1063C22.5682 16.1063 25.7668 19.2855 25.7905 23.8673C25.7905 25.9479 25.7905 28.0283 25.7905 30.1089C25.7905 30.9504 25.4114 31.3946 24.6532 31.4881C23.895 31.5816 23.2554 31.1842 23.0895 30.4128C23.0184 29.9453 23.0421 29.4777 22.9947 28.9166ZM12.9726 23.7738C12.9726 26.8362 15.1524 29.1271 18.0192 29.1271C20.9097 29.1037 23.0421 26.8595 23.0421 23.8439C23.0421 20.8283 20.9097 18.6777 17.9481 18.6777C15.0813 18.6777 12.9726 20.8283 12.9726 23.7738Z" fill="url(#paint0_linear_32_55)"/>
<path d="M32.103 12.199C32.0557 13.2977 30.9421 14.3497 29.8522 14.2795C28.6912 14.2094 27.7672 13.2509 27.7909 12.1289C27.8146 10.9367 28.8334 9.95488 29.9943 10.0016C31.3685 10.0484 32.0793 11.264 32.103 12.199Z" fill="url(#paint1_linear_32_55)"/>
<path d="M31.3446 23.998C31.3446 26.055 31.3683 28.1122 31.3446 30.1694C31.3446 31.0577 30.8471 31.572 30.0889 31.6187C29.1412 31.6655 28.5726 31.1512 28.5489 30.146C28.5252 29.0707 28.5489 27.9954 28.5489 26.92C28.5489 23.8811 28.5252 20.8421 28.5489 17.8265C28.5489 16.7512 29.0464 16.2603 29.9941 16.2837C30.7997 16.3071 31.3446 16.8213 31.3446 17.733C31.3683 19.8369 31.3446 21.9408 31.3446 24.0447C31.3209 23.998 31.3209 23.998 31.3446 23.998Z" fill="url(#paint2_linear_32_55)"/>
<path d="M21.6505 43.6298C13.2632 44.074 2.8147 38.3935 0.421708 26.7286C-1.80541 15.7883 4.99443 5.19869 15.9642 2.15972C25.8915 -0.5987 35.5345 3.95972 40.5336 11.2532C40.6521 11.4169 40.7469 11.5805 40.8417 11.7441C41.1259 12.1649 40.9364 12.4688 40.5573 12.7026C40.2019 12.9363 39.9413 12.7493 39.7281 12.422C38.5671 10.7155 37.2167 9.19608 35.5818 7.93371C31.3408 4.66098 26.5075 3.28177 21.1529 3.56233C12.3866 4.00644 4.47317 11.1831 3.0042 20.1831C1.32203 30.5155 8.02708 40.1 18.9495 42.1104C20.5369 42.4143 22.2191 42.2038 23.8539 42.2038C24.2093 42.2038 24.5884 42.1104 24.9438 42.1805C25.1807 42.2272 25.5124 42.461 25.5361 42.6246C25.5598 42.8117 25.3228 43.1857 25.1333 43.2559C24.6121 43.4428 24.0671 43.5597 23.5222 43.6064C22.7641 43.6766 22.0295 43.6298 21.6505 43.6298Z" fill="url(#paint3_linear_32_55)"/>
<defs>
<linearGradient id="paint0_linear_32_55" x1="17.8952" y1="16.1063" x2="17.8952" y2="31.6216" gradientUnits="userSpaceOnUse">
<stop stop-color="#004DFF"/>
<stop offset="1" stop-color="#E607C1"/>
</linearGradient>
<linearGradient id="paint1_linear_32_55" x1="29.9468" y1="10" x2="29.9468" y2="14.2828" gradientUnits="userSpaceOnUse">
<stop stop-color="#004DFF"/>
<stop offset="1" stop-color="#E723C6"/>
</linearGradient>
<linearGradient id="paint2_linear_32_55" x1="29.9467" y1="16.2828" x2="29.9467" y2="31.6216" gradientUnits="userSpaceOnUse">
<stop stop-color="#004DFF"/>
<stop offset="1" stop-color="#F204BF"/>
</linearGradient>
<linearGradient id="paint3_linear_32_55" x1="20.4893" y1="1.34596" x2="20.4893" y2="43.654" gradientUnits="userSpaceOnUse">
<stop stop-color="#004DFF"/>
<stop offset="1" stop-color="#FF00BB"/>
</linearGradient>
</defs>
</svg>
